<svg xmlns="http://www.w3.org/2000/svg" width="24" height="24" viewBox="0 0 24 24">
  <path fill="#181717" d="M12 0C5.37 0 0 5.37 0 12c0 5.3 3.44 9.8 8.2 11.39.6.11.82-.26.82-.58v-2.02c-3.34.72-4.04-1.6-4.04-1.6-.54-1.38-1.32-1.75-1.32-1.75-1.08-.74.08-.73.08-.73 1.2.08 1.83 1.22 1.83 1.22 1.06 1.81 2.8 1.29 3.48.99.11-.77.42-1.29.77-1.59-2.67-.3-5.47-1.33-5.47-5.92 0-1.31.47-2.38 1.22-3.22-.12-.3-.53-1.52.12-3.16 0 0 1-.32 3.3 1.23.95-.26 1.97-.39 2.98-.39s2.03.13 2.98.39c2.3-1.55 3.3-1.23 3.3-1.23.65 1.64.24 2.86.12 3.16.76.84 1.22 1.91 1.22 3.22 0 4.61-2.8 5.61-5.48 5.91.43.37.81 1.1.81 2.22v3.3c0 .32.22.69.82.58C20.56 21.8 24 17.3 24 12c0-6.63-5.37-12-12-12z"/>
</svg>
